<svg xmlns="http://www.w3.org/2000/svg" data-name="Layer 1" viewBox="0 0 100 100" x="0px" y="0px"><title>Artboard 1</title><path d="M87.23,11.14H13.5A6.51,6.51,0,0,0,7,17.64V83.87a6.51,6.51,0,0,0,6.5,6.5H87.23a6.51,6.51,0,0,0,6.5-6.5V17.64A6.51,6.51,0,0,0,87.23,11.14Zm3.5,72.73a3.5,3.5,0,0,1-3.5,3.5H13.5a3.5,3.5,0,0,1-3.5-3.5V17.64a3.5,3.5,0,0,1,3.5-3.5H87.23a3.5,3.5,0,0,1,3.5,3.5Z"></path><path d="M49.15,42l0,0a12.39,12.39,0,0,0-17.5,0l0,0,0,0a12.39,12.39,0,0,0,0,17.5l0,0,0,0a12.39,12.39,0,0,0,17.5,0l0,0,0,0a12.39,12.39,0,0,0,0-17.5Zm-7.28-.51a9.36,9.36,0,0,1,4,1.66L44.1,44.9A6.91,6.91,0,0,0,41.86,44Zm-3,0V44a6.91,6.91,0,0,0-2.23.93l-1.77-1.77A9.36,9.36,0,0,1,38.86,41.46Zm-6.13,14.8a9.36,9.36,0,0,1-1.66-4h2.5a6.9,6.9,0,0,0,.93,2.24Zm.84-7h-2.5a9.36,9.36,0,0,1,1.66-4L34.51,47A6.91,6.91,0,0,0,33.58,49.25ZM38.86,60a9.36,9.36,0,0,1-4-1.66l1.77-1.77a6.9,6.9,0,0,0,2.24.93Zm-2.45-9.29a4,4,0,1,1,4,4A4,4,0,0,1,36.41,50.75ZM41.86,60v-2.5a6.9,6.9,0,0,0,2.24-.93l1.77,1.77A9.36,9.36,0,0,1,41.86,60ZM48,56.26l-1.77-1.77a6.91,6.91,0,0,0,.93-2.24h2.5A9.36,9.36,0,0,1,48,56.26Zm-.84-7A6.91,6.91,0,0,0,46.22,47L48,45.25a9.36,9.36,0,0,1,1.66,4Z"></path><path d="M86.17,41.33a1.5,1.5,0,0,0,0-3h-3.1V28.47a6.51,6.51,0,0,0-6.5-6.5H24.17a6.51,6.51,0,0,0-6.5,6.5V73a6.51,6.51,0,0,0,6.5,6.5h52.4a6.51,6.51,0,0,0,6.5-6.5V63.17h3.1a1.5,1.5,0,0,0,0-3h-3.1V41.33Zm-6.1-3H76.33a1.5,1.5,0,0,0,0,3h3.73V60.17H76.33a1.5,1.5,0,0,0,0,3h3.73V73a3.5,3.5,0,0,1-3.5,3.5H24.17a3.5,3.5,0,0,1-3.5-3.5V28.47a3.5,3.5,0,0,1,3.5-3.5h52.4a3.5,3.5,0,0,1,3.5,3.5Z"></path></svg>